<svg width="68" height="71" viewBox="0 0 68 71" fill="none" xmlns="http://www.w3.org/2000/svg">
<circle cx="34" cy="34" r="34" fill="#92A234"/>
<g clip-path="url(#clip0_5251_7719)">
<mask id="mask0_5251_7719" style="mask-type:alpha" maskUnits="userSpaceOnUse" x="19" y="54" width="33" height="26">
<path fill-rule="evenodd" clip-rule="evenodd" d="M46.4315 58.6413C45.2201 56.0719 42.6064 54.2936 39.5774 54.2936C38.3873 54.2936 37.2613 54.5681 36.2593 55.0573C35.6944 54.5808 34.9647 54.2936 34.1678 54.2936C32.7497 54.2936 31.5439 55.2031 31.1021 56.4706C29.9976 56.5516 28.9954 57.001 28.218 57.6964C27.875 57.5943 27.5116 57.5394 27.1354 57.5394C25.6051 57.5394 24.2868 58.4471 23.6896 59.7535C21.0525 60.1147 19.0209 62.3765 19.0209 65.1129C19.0209 68.1005 21.4428 70.5225 24.4305 70.5225C24.8177 70.5225 25.1954 70.4818 25.5595 70.4045C26.0435 75.3298 30.1972 79.1779 35.2497 79.1779C39.9014 79.1779 43.7913 75.9161 44.7569 71.5549C45.0093 71.5876 45.2668 71.6044 45.5281 71.6044C48.8145 71.6044 51.4787 68.9402 51.4787 65.6538C51.4787 63.7468 50.5817 62.0494 49.1866 60.9604C48.8267 59.7211 47.7479 58.7876 46.4315 58.6413Z" fill="white"/>
</mask>
<g mask="url(#mask0_5251_7719)">
<circle cx="34.5" cy="33.4048" r="35" fill="#FFFFF1"/>
</g>
</g>
<path d="M38.4892 35.2136C37.6984 35.9466 36.8645 36.939 36.1066 38.27C35.3577 35.651 34.4138 33.731 33.4596 32.3253C37.8379 18.1554 16.5 17.6476 16.5 17.6476C16.5 17.6476 17.1229 35.3575 28.2667 34.9509C28.244 33.765 28.0545 32.566 27.789 31.4417C27.6154 30.7086 27.4089 30.0096 27.1956 29.3645C26.4831 27.2246 25.6787 25.7058 25.6787 25.7058C26.491 26.763 27.2104 27.772 27.8457 28.7204C30.0321 31.9791 31.2256 34.5135 31.7804 35.8521C33.1499 38.7019 34.3797 43.3893 34.3797 51.0496C34.3797 51.9168 35.107 52.619 35.9988 52.619C36.8928 52.619 37.6189 51.9168 37.6189 51.0496C37.6189 48.5669 37.4953 46.3578 37.2718 44.3872C37.788 41.9825 38.5674 40.2757 39.3741 39.0668C39.904 38.0875 40.8808 36.4104 42.1969 34.6981C43.369 33.1748 44.8144 31.623 46.4493 30.5152C46.4493 30.5152 43.0967 34.1101 42.88 37.6292C52.1403 38.0974 52.5 23.9847 52.5 23.9847C52.5 23.9847 35.5529 24.5452 38.4892 35.2136Z" fill="#FFFFF1"/>
<defs>
<clipPath id="clip0_5251_7719">
<rect width="34.8095" height="16.1905" fill="white" transform="translate(17 54.2381)"/>
</clipPath>
</defs>
</svg>
